name ./resultDataOpenSim/trcMotMarkerGrf/sub06/grf-12-03.mot
datacolumns 19
datarows 20
range 1.56800000 1.64400000
endheader

                time	     ground_force_vx	     ground_force_vy	     ground_force_vz	     ground_force_px	     ground_force_py	     ground_force_pz	   l_ground_force_vx	   l_ground_force_vy	   l_ground_force_vz	   l_ground_force_px	   l_ground_force_py	   l_ground_force_pz	     ground_torque_x	     ground_torque_y	     ground_torque_z	   l_ground_torque_x	   l_ground_torque_y	   l_ground_torque_z	
          1.56800000	        117.00843253	        224.95133460	        -11.86422977	          0.85476215	          0.00000000	          0.14641917	          0.00000000	          0.00000000	          0.00000000	          0.00000000	          0.00000000	          0.00000000	          0.00000000	          1.02665849	          0.00000000	          0.00000000	          0.00000000	          0.00000000	
          1.57200000	         95.10770717	        189.88404664	         -8.29577703	          0.85839152	          0.00000000	          0.14676759	          0.00000000	          0.00000000	          0.00000000	          0.00000000	          0.00000000	          0.00000000	          0.00000000	          1.12827000	          0.00000000	          0.00000000	          0.00000000	          0.00000000	
          1.57600000	         72.68892174	        158.87235531	         -5.42003531	          0.86366294	          0.00000000	          0.14650339	          0.00000000	          0.00000000	          0.00000000	          0.00000000	          0.00000000	          0.00000000	          0.00000000	          1.34855554	          0.00000000	          0.00000000	          0.00000000	          0.00000000	
          1.58000000	         51.37411165	        131.67599161	         -3.24574139	          0.87030314	          0.00000000	          0.14550349	          0.00000000	          0.00000000	          0.00000000	          0.00000000	          0.00000000	          0.00000000	          0.00000000	          1.63688302	          0.00000000	          0.00000000	          0.00000000	          0.00000000	
          1.58400000	         32.56034233	        107.70922654	         -1.72128395	          0.87774882	          0.00000000	          0.14375789	          0.00000000	          0.00000000	          0.00000000	          0.00000000	          0.00000000	          0.00000000	          0.00000000	          1.92843892	          0.00000000	          0.00000000	          0.00000000	          0.00000000	
          1.58800000	         17.19322515	         86.38349506	         -0.78134500	          0.88541833	          0.00000000	          0.14142818	          0.00000000	          0.00000000	          0.00000000	          0.00000000	          0.00000000	          0.00000000	          0.00000000	          2.15802690	          0.00000000	          0.00000000	          0.00000000	          0.00000000	
          1.59200000	          5.70746592	         67.32875354	         -0.34825923	          0.89284059	          0.00000000	          0.13878004	          0.00000000	          0.00000000	          0.00000000	          0.00000000	          0.00000000	          0.00000000	          0.00000000	          2.27469639	          0.00000000	          0.00000000	          0.00000000	          0.00000000	
          1.59600000	         -1.91038899	         50.41342164	         -0.30797611	          0.89948448	          0.00000000	          0.13590813	          0.00000000	          0.00000000	          0.00000000	          0.00000000	          0.00000000	          0.00000000	          0.00000000	          2.25262888	          0.00000000	          0.00000000	          0.00000000	          0.00000000	
          1.60000000	         -6.05262096	         35.57219906	         -0.52398626	          0.90400265	          0.00000000	          0.13242613	          0.00000000	          0.00000000	          0.00000000	          0.00000000	          0.00000000	          0.00000000	          0.00000000	          2.09503685	          0.00000000	          0.00000000	          0.00000000	          0.00000000	
          1.60400000	         -7.46701385	         22.59783005	         -0.87776481	          0.90242381	          0.00000000	          0.12729589	          0.00000000	          0.00000000	          0.00000000	          0.00000000	          0.00000000	          0.00000000	          0.00000000	          1.83072545	          0.00000000	          0.00000000	          0.00000000	          0.00000000	
          1.60800000	         -7.18019974	         11.11414189	         -1.28325229	          0.88854126	          0.00000000	          0.11924871	          0.00000000	          0.00000000	          0.00000000	          0.00000000	          0.00000000	          0.00000000	          0.00000000	          1.50555299	          0.00000000	          0.00000000	          0.00000000	          0.00000000	
          1.61200000	          0.00000000	          0.00000000	          0.00000000	          0.00000000	          0.00000000	          0.00000000	          0.00000000	          0.00000000	          0.00000000	          0.00000000	          0.00000000	          0.00000000	          0.00000000	          0.00000000	          0.00000000	          0.00000000	          0.00000000	          0.00000000	
          1.61600000	          0.00000000	          0.00000000	          0.00000000	          0.00000000	          0.00000000	          0.00000000	          0.00000000	          0.00000000	          0.00000000	          0.00000000	          0.00000000	          0.00000000	          0.00000000	          0.00000000	          0.00000000	          0.00000000	          0.00000000	          0.00000000	
          1.62000000	          0.00000000	          0.00000000	          0.00000000	          0.00000000	          0.00000000	          0.00000000	          0.00000000	          0.00000000	          0.00000000	          0.00000000	          0.00000000	          0.00000000	          0.00000000	          0.00000000	          0.00000000	          0.00000000	          0.00000000	          0.00000000	
          1.62400000	          0.00000000	          0.00000000	          0.00000000	          0.00000000	          0.00000000	          0.00000000	          0.00000000	          0.00000000	          0.00000000	          0.00000000	          0.00000000	          0.00000000	          0.00000000	          0.00000000	          0.00000000	          0.00000000	          0.00000000	          0.00000000	
          1.62800000	          0.00000000	          0.00000000	          0.00000000	          0.00000000	          0.00000000	          0.00000000	          0.00000000	          0.00000000	          0.00000000	          0.00000000	          0.00000000	          0.00000000	          0.00000000	          0.00000000	          0.00000000	          0.00000000	          0.00000000	          0.00000000	
          1.63200000	          0.00000000	          0.00000000	          0.00000000	          0.00000000	          0.00000000	          0.00000000	          0.00000000	          0.00000000	          0.00000000	          0.00000000	          0.00000000	          0.00000000	          0.00000000	          0.00000000	          0.00000000	          0.00000000	          0.00000000	          0.00000000	
          1.63600000	          0.00000000	          0.00000000	          0.00000000	          0.00000000	          0.00000000	          0.00000000	          0.00000000	          0.00000000	          0.00000000	          0.00000000	          0.00000000	          0.00000000	          0.00000000	          0.00000000	          0.00000000	          0.00000000	          0.00000000	          0.00000000	
          1.64000000	          0.00000000	          0.00000000	          0.00000000	          0.00000000	          0.00000000	          0.00000000	          0.00000000	          0.00000000	          0.00000000	          0.00000000	          0.00000000	          0.00000000	          0.00000000	          0.00000000	          0.00000000	          0.00000000	          0.00000000	          0.00000000	
          1.64400000	          0.00000000	          0.00000000	          0.00000000	          0.00000000	          0.00000000	          0.00000000	          0.00000000	          0.00000000	          0.00000000	          0.00000000	          0.00000000	          0.00000000	          0.00000000	          0.00000000	          0.00000000	          0.00000000	          0.00000000	          0.00000000	
